# xmcd
#
# Track frame offsets: 
#        150
#        14504
#        26183
#        38949
#        58068
#        70465
#        77902
#        87721
#        110901
#        125945
#        136844
#        152814
#        171675
#        187673
#        201860
#        224977
#        240272
#        251248
#        267281
#        292021
#        316664
#        331764
#
# Disc length: 4558 seconds
#
# Revision: 2
# Processed by: cddbd v1.5.2PL0 Copyright (c) Steve Scherf et al.
# Submitted via: ExactAudioCopy v1.0b4
#
DISCID=6011cc16
DTITLE=Climax Blues Band - Couldn't Get It Right
DYEAR=2000
DGENRE=Blues Rock
TTITLE0=Couldn't Get It Right
TTITLE1=Reap What I've Sowed
TTITLE2=Looking for My Baby
TTITLE3=Like Uncle Charlie
TTITLE4=Reaching Out
TTITLE5=Milwaukee Truckin' Blues
TTITLE6=That's All
TTITLE7=Mole on the Dole
TTITLE8=Towards the Sun
TTITLE9=Loving Machine
TTITLE10=Hey Mama
TTITLE11=Nogales
TTITLE12=Using the Power
TTITLE13=I Am Constant
TTITLE14=Sky High
TTITLE15=Berlin Blues
TTITLE16=Everyday
TTITLE17=Shoot Her If She Runs
TTITLE18=If You Wanna Know
TTITLE19=Shake Your Love
TTITLE20=Hey Baby Everything's Gonna Be Alright Yeah Yeah Yeah
TTITLE21=Cobra
EXTD=
EXTT0=
EXTT1=
EXTT2=
EXTT3=
EXTT4=
EXTT5=
EXTT6=
EXTT7=
EXTT8=
EXTT9=
EXTT10=
EXTT11=
EXTT12=
EXTT13=
EXTT14=
EXTT15=
EXTT16=
EXTT17=
EXTT18=
EXTT19=
EXTT20=
EXTT21=
PLAYORDER=
